<svg width="420" height="85" viewBox="0 0 84 17" fill="none" xmlns="http://www.w3.org/2000/svg">
<path d="M46.5756 2.83289L44.4161 11.1103L42.2073 2.83289H39.3845L37.2095 11.1103L35.0346 2.83289H31.928L35.6485 14.1643H38.6132L40.7419 6.4527L42.8397 14.1643H45.8044L49.5403 2.83289H46.5756ZM51.0736 2.83289V14.1643H59.8813V11.8043H53.9365V9.66926L59.1625 9.65364V7.3092H53.9365V5.19295H59.724V2.83289H51.0736ZM62.5591 2.83289V14.1643H71.3668V11.8043H65.422V9.66926L70.648 9.65364V7.3092H65.422V5.19295H71.2095V2.83289H62.5591ZM72.7674 2.83289H76.127L78.194 6.04945L80.2764 2.83289H83.6853L80.0388 8.24697L84 14.1643H80.5448L78.194 10.6571L75.8895 14.1643H72.5145L76.4448 8.39389L72.7674 2.83289Z" fill="#D8AE15"/>
<path d="M20.9154 6.37677L16.621 10.8442L19.3078 13.6516L26.4762 6.37677L23.1911 2.95184H20.2583L18.0385 0.47875H24.2563L29.8479 6.37677L19.3078 17L14.924 12.6091L10.5402 16.9858L0 6.37677L5.59159 0.464589H11.8094L9.58958 2.93768H6.65679L3.37173 6.37677L10.5402 13.6374L13.2269 10.83L8.93257 6.37394L14.9268 0L20.9154 6.37677ZM12.4245 6.37677L14.9212 8.89802L17.4178 6.37677L14.9212 3.66289L12.4245 6.37677Z" fill="#D8AE15"/>
</svg>
